<svg width="200" height="200" viewBox="0 0 200 200" fill="none" xmlns="http://www.w3.org/2000/svg">
<rect width="200" height="200" fill="black"/>
<path d="M155.95 44.85L154.45 58.5H140.05C136.35 70.1 132.2 80.9 127.6 90.9C123 100.8 117.75 110 111.85 118.5C116.65 125.6 122.15 132.45 128.35 139.05C134.55 145.65 141.45 152.15 149.05 158.55L140.35 170.55C132.65 164.25 125.65 157.8 119.35 151.2C113.15 144.5 107.6 137.6 102.7 130.5C89.4 146.5 72.85 160 53.05 171L45.7 157.95C65.5 146.95 81.8 133.6 94.6 117.9C89.2 108.6 84.7 99 81.1 89.1C77.6 79.2 74.8 69 72.7 58.5H59.05L60.55 44.85H101.35L103.3 25.8H117.1L115.15 44.85H155.95ZM87.1 58.5C90.7 75.7 96.25 91.25 103.75 105.15C112.65 91.65 119.7 76.1 124.9 58.5H87.1Z" fill="white"/>
</svg>
